<svg width="21" height="22" viewBox="0 0 21 22" fill="none" xmlns="http://www.w3.org/2000/svg">
<path d="M20.4099 19.7138L14.5458 13.8304C15.864 12.2009 16.5068 10.1278 16.3416 8.03844C16.1764 5.94906 15.2158 4.00271 13.6579 2.60066C12.1 1.19861 10.0635 0.44771 7.9683 0.502834C5.87311 0.557957 3.87895 1.41489 2.39692 2.89692C0.914887 4.37895 0.057957 6.37311 0.00283362 8.46829C-0.0522897 10.5635 0.698606 12.5999 2.10066 14.1578C3.50271 15.7157 5.44906 16.6763 7.53845 16.8416C9.62783 17.0068 11.7009 16.364 13.3304 15.0458L19.1945 20.9099C19.2742 20.99 19.3689 21.0535 19.4732 21.0969C19.5775 21.1403 19.6892 21.1626 19.8022 21.1626C19.9151 21.1626 20.027 21.1403 20.1313 21.0969C20.2356 21.0535 20.3303 20.99 20.4099 20.9099C20.5647 20.7493 20.6511 20.5349 20.6511 20.3119C20.6511 20.0888 20.5647 19.8745 20.4099 19.7138ZM8.20722 15.1669C6.93208 15.1679 5.68542 14.7905 4.62478 14.0827C3.56415 13.3749 2.7372 12.3683 2.24879 11.1904C1.76037 10.0126 1.63235 8.71629 1.88088 7.46561C2.12942 6.21493 2.74343 5.06608 3.64509 4.16442C4.54675 3.26276 5.6956 2.6488 6.94628 2.40027C8.19696 2.15174 9.49316 2.27976 10.6711 2.76817C11.8489 3.25659 12.8555 4.08348 13.5633 5.14411C14.2711 6.20475 14.6485 7.45147 14.6475 8.72661C14.645 10.4339 13.9656 12.0705 12.7584 13.2777C11.5511 14.485 9.9145 15.1643 8.20722 15.1669Z" fill="#C7C7C7"/>
</svg>
